# File created by Blade
# Date/Time:  Tue Apr 07 21:32:54 2015
#---------------------------------------------------------
:version 1.10
:name HOM
:units
  mass 1.0
  length 1.000000
  angle deg
:documentation
     Acclaim Skeleton File
:root
   axis xyz
   order TX TY TZ RX RY RZ
   position 0.000000 0.000000 0.000000
   orientation 0 0 0
:bonedata
   begin
      id 1
      name Spine_dum
      direction 0.000000 1.000000 0.000000
      length 4.885285
      axis 0.0 0.0 0.0 xyz
   end
   begin
      id 2
      name LeftUpLeg_dum
      direction 1.000000 0.000000 0.000000
      length 2.672193
      axis 0.0 0.0 0.0 xyz
   end
   begin
      id 3
      name RightUpLeg_dum
      direction -1.000000 0.000000 0.000000
      length 2.672193
      axis 0.0 0.0 0.0 xyz
   end
   begin
      id 4
      name Spine
      direction 0.000000 1.000000 0.000000
      length 0.000000
      axis 0.0 0.0 0.0 xyz
      dof rx ry rz
   end
   begin
      id 5
      name Spine_dum1
      direction 0.000000 1.000000 0.000000
      length 16.494159
      axis 0.0 0.0 0.0 xyz
   end
   begin
      id 6
      name Spine_dum2
      direction 0.000000 1.000000 0.000000
      length 10.663448
      axis 0.0 0.0 0.0 xyz
   end
   begin
      id 7
      name Spine_dum3
      direction 0.000000 1.000000 0.000000
      length 10.663448
      axis 0.0 0.0 0.0 xyz
   end
   begin
      id 8
      name Head
      direction 0.000000 1.000000 0.000000
      length 4.527550
      axis 0.0 0.0 0.0 xyz
      dof rx ry rz
   end
   begin
      id 9
      name LeftShoulder
      direction 1.000000 0.000000 0.000000
      length 7.531907
      axis 0.0 0.0 -90.0 xyz
      dof rx ry rz
   end
   begin
      id 10
      name LeftArm
      direction 1.000000 0.000000 0.000000
      length 10.229199
      axis 0.0 0.0 -90.0 xyz
      dof rx ry rz
   end
   begin
      id 11
      name LeftForeArm
      direction 1.000000 0.000000 0.000000
      length 8.673495
      axis 0.0 0.0 -90.0 xyz
      dof ry rz rx
   end
   begin
      id 12
      name LeftHand
      direction 0.000000 0.000000 0.000000
      length 0.000000
      axis 0.0 0.0 -90.0 xyz
      dof rx ry rz
   end
   begin
      id 13
      name LeftHand_dum1
      direction 0.000000 0.000000 0.000000
      length 0.000000
      axis 0.0 0.0 -90.0 xyz
   end
   begin
      id 14
      name LeftHand_dum2
      direction 1.000000 0.000000 0.000000
      length 3.937000
      axis 0.0 0.0 -90.0 xyz
   end
   begin
      id 15
      name LeftHandThumb1
      direction 0.000000 0.000000 1.000000
      length 3.937000
      axis 0.0 0.0 -90.0 xyz
      dof rx rz ry
   end
   begin
      id 16
      name RightShoulder
      direction -1.000000 0.000000 0.000000
      length 7.531907
      axis 0.0 0.0 90.0 xyz
      dof rx ry rz
   end
   begin
      id 17
      name RightArm
      direction -1.000000 0.000000 0.000000
      length 10.229199
      axis 0.0 0.0 90.0 xyz
      dof rx ry rz
   end
   begin
      id 18
      name RightForeArm
      direction -1.000000 0.000000 0.000000
      length 8.673495
      axis 0.0 0.0 90.0 xyz
      dof ry rz rx
   end
   begin
      id 19
      name RightHand
      direction 0.000000 0.000000 0.000000
      length 0.000000
      axis 0.0 0.0 90.0 xyz
      dof rx ry rz
   end
   begin
      id 20
      name RightHand_dum1
      direction 0.000000 0.000000 0.000000
      length 0.000000
      axis 0.0 0.0 90.0 xyz
   end
   begin
      id 21
      name RightHand_dum2
      direction -1.000000 0.000000 0.000000
      length 3.937000
      axis 0.0 0.0 90.0 xyz
   end
   begin
      id 22
      name RightHandThumb1
      direction 0.000000 0.000000 1.000000
      length 3.937000
      axis 0.0 0.0 90.0 xyz
      dof rx rz ry
   end
   begin
      id 23
      name LeftUpLeg
      direction 0.000000 -1.000000 0.000000
      length 16.263388
      axis 0.0 0.0 0.0 xyz
      dof rx ry rz
   end
   begin
      id 24
      name LeftLeg
      direction 0.000000 -1.000000 0.000000
      length 14.328163
      axis 0.0 0.0 0.0 xyz
      dof rx ry rz
   end
   begin
      id 25
      name LeftFoot
      direction 0.000000 -0.258819 0.965926
      length 5.031290
      axis 15.0 0.0 0.0 xyz
      dof rx ry rz
   end
   begin
      id 26
      name LeftToeBase
      direction 0.000000 0.000000 1.000000
      length 2.952750
      axis 0.0 0.0 0.0 xyz
      dof rx ry rz
   end
   begin
      id 27
      name RightUpLeg
      direction 0.000000 -1.000000 0.000000
      length 16.263388
      axis 0.0 0.0 0.0 xyz
      dof rx ry rz
   end
   begin
      id 28
      name RightLeg
      direction 0.000000 -1.000000 0.000000
      length 14.328163
      axis 0.0 0.0 0.0 xyz
      dof rx ry rz
   end
   begin
      id 29
      name RightFoot
      direction 0.000000 -0.258819 0.965926
      length 5.031290
      axis 15.0 0.0 0.0 xyz
      dof rx ry rz
   end
   begin
      id 30
      name RightToeBase
      direction 0.000000 0.000000 1.000000
      length 2.952750
      axis 0.0 0.0 0.0 xyz
      dof rx ry rz
   end
:hierarchy
   begin
      root Spine_dum LeftUpLeg_dum RightUpLeg_dum
      Spine_dum Spine
      LeftUpLeg_dum LeftUpLeg
      RightUpLeg_dum RightUpLeg
      Spine Spine_dum1 Spine_dum2 Spine_dum3
      Spine_dum1 Head
      Spine_dum2 LeftShoulder
      Spine_dum3 RightShoulder
      LeftShoulder LeftArm
      LeftArm LeftForeArm
      LeftForeArm LeftHand
      LeftHand LeftHand_dum1 LeftHand_dum2
      LeftHand_dum1 LeftHandThumb1
      RightShoulder RightArm
      RightArm RightForeArm
      RightForeArm RightHand
      RightHand RightHand_dum1 RightHand_dum2
      RightHand_dum1 RightHandThumb1
      LeftUpLeg LeftLeg
      LeftLeg LeftFoot
      LeftFoot LeftToeBase
      RightUpLeg RightLeg
      RightLeg RightFoot
      RightFoot RightToeBase
   end

# File created by Blade
# Date/Time:  Tue Apr 07 21:33:03 2015
# Frame Rate: 120.000 fps
#------------------------------------------------------
:FULLY-SPECIFIED
:DEGREES
1
root -0.919927 32.927061 0.055792 9.729749 1.748498 -2.288938
Spine -12.709670 -6.399838 1.860590
Head 13.576980 -4.198577 -0.565406
LeftShoulder -20.001054 40.202514 21.567734
LeftArm 57.021396 -57.925332 -61.131592
LeftForeArm 4.968606 0.000000 -4.008190
LeftHand 4.426034 -0.000000 5.934170
LeftHandThumb1 -26.253704 0.000000 33.147579
RightShoulder -8.032704 2.693799 -31.671633
RightArm 12.680200 14.619872 39.881020
RightForeArm -10.987977 -0.000000 0.041444
RightHand 2.667991 -0.000000 -0.574159
RightHandThumb1 -24.326973 -0.000000 -32.862282
LeftUpLeg -4.627977 -5.107327 3.929064
LeftLeg -3.674989 -0.000000 0.000000
LeftFoot -4.945227 6.495584 -19.922682
LeftToeBase -5.768291 -0.000000 0.000000
RightUpLeg -3.776244 1.825459 2.720471
RightLeg -4.857324 -0.000000 0.000000
RightFoot -3.964487 -12.362610 8.224053
RightToeBase -2.396331 -0.000000 0.000000
2
root -0.922118 32.927485 0.059157 9.719166 1.748958 -2.276790
Spine -12.713808 -6.397363 1.849055
Head 13.573606 -4.178335 -0.583885
LeftShoulder -20.008838 40.186337 21.573674
LeftArm 57.083266 -57.945453 -61.229105
LeftForeArm 4.899361 -0.000000 -4.010350
LeftHand 4.427200 -0.000000 5.694745
LeftHandThumb1 -26.253704 0.000000 33.147579
RightShoulder -8.041618 2.718516 -31.677051
RightArm 12.681266 14.630367 39.883086
RightForeArm -11.037193 0.000000 0.060632
RightHand 2.683355 -0.000000 -0.621616
RightHandThumb1 -24.326973 -0.000000 -32.862282
LeftUpLeg -4.612967 -5.089311 3.913197
LeftLeg -3.672042 -0.000000 0.000000
LeftFoot -4.937536 6.495279 -19.927026
LeftToeBase -5.825589 -0.000000 0.000000
RightUpLeg -3.755826 1.825017 2.707964
RightLeg -4.864565 -0.000000 0.000000
RightFoot -3.969737 -12.331690 8.271002
RightToeBase -2.348856 -0.000000 0.000000
3
root -0.923716 32.928006 0.062256 9.700736 1.747447 -2.264758
Spine -12.710213 -6.398462 1.839097
Head 13.572237 -4.167984 -0.607781
LeftShoulder -20.010698 40.164692 21.562667
LeftArm 57.069388 -57.954352 -61.221033
LeftForeArm 4.876781 -0.000000 -4.044313
LeftHand 4.443555 0.000000 5.692220
LeftHandThumb1 -26.253704 0.000000 33.147579
RightShoulder -8.031270 2.767140 -31.689491
RightArm 12.649803 14.610279 39.877691
RightForeArm -11.117715 -0.000000 0.088758
RightHand 2.578089 -0.000000 -0.462109
RightHandThumb1 -24.326973 -0.000000 -32.862282
LeftUpLeg -4.598859 -5.050525 3.891667
LeftLeg -3.650687 -0.000000 0.000000
LeftFoot -4.936875 6.488931 -19.889563
LeftToeBase -5.873100 -0.000000 0.000000
RightUpLeg -3.724837 1.849263 2.697127
RightLeg -4.872121 -0.000000 0.000000
RightFoot -3.979231 -12.378607 8.247388
RightToeBase -2.317291 -0.000000 0.000000
4
root -0.925234 32.928496 0.064217 9.691544 1.741868 -2.256845
Spine -12.715123 -6.401383 1.835646
Head 13.573049 -4.146365 -0.626082
LeftShoulder -20.005787 40.145951 21.562557
LeftArm 56.963839 -57.934755 -61.110880
LeftForeArm 4.855078 -0.000000 -4.110766
LeftHand 4.490769 -0.000000 5.713993
LeftHandThumb1 -26.253704 0.000000 33.147579
RightShoulder -8.016985 2.788697 -31.689387
RightArm 12.649778 14.575223 39.862880
RightForeArm -11.113705 -0.000000 0.102964
RightHand 2.512370 -0.000000 -0.389903
RightHandThumb1 -24.326973 -0.000000 -32.862282
LeftUpLeg -4.593733 -5.019318 3.877467
LeftLeg -3.633140 -0.000000 0.000000
LeftFoot -4.933594 6.483615 -19.853414
LeftToeBase -5.839656 -0.000000 0.000000
RightUpLeg -3.716392 1.841441 2.690951
RightLeg -4.858006 -0.000000 0.000000
RightFoot -4.002959 -12.352307 8.283038
RightToeBase -2.277609 -0.000000 0.000000
5
root -0.926507 32.928677 0.066404 9.674013 1.742786 -2.238912
Spine -12.707040 -6.400321 1.816105
Head 13.554905 -4.140315 -0.649216
LeftShoulder -19.983241 40.115320 21.577187
LeftArm 56.998490 -57.977323 -61.219459
LeftForeArm 4.989010 -0.000000 -4.071738
LeftHand 4.479286 -0.000000 5.720742
LeftHandThumb1 -26.253704 0.000000 33.147579
RightShoulder -8.013229 2.794068 -31.695406
RightArm 12.648454 14.548564 39.862824
RightForeArm -11.088884 -0.000000 0.121865
RightHand 2.587911 -0.000000 -0.429502
RightHandThumb1 -24.326973 -0.000000 -32.862282
LeftUpLeg -4.575771 -5.014586 3.853884
LeftLeg -3.625827 -0.000000 0.000000
LeftFoot -4.937590 6.495808 -19.821764
LeftToeBase -5.811460 -0.000000 0.000000
RightUpLeg -3.696678 1.831307 2.672456
RightLeg -4.852736 -0.000000 0.000000
RightFoot -4.016219 -12.290922 8.354157
RightToeBase -2.360657 -0.000000 0.000000
6
root -0.928417 32.928864 0.068015 9.653264 1.746566 -2.232109
Spine -12.693869 -6.407483 1.808725
Head 13.540267 -4.131181 -0.667560
LeftShoulder -20.002780 40.132286 21.563610
LeftArm 56.949893 -57.915123 -61.125721
LeftForeArm 4.902472 -0.000000 -4.156865
LeftHand 4.560749 -0.000000 5.622275
LeftHandThumb1 -26.253704 0.000000 33.147579
RightShoulder -8.001725 2.809201 -31.715466
RightArm 12.648936 14.525231 39.889834
RightForeArm -11.041830 -0.000000 0.117594
RightHand 2.456666 -0.000000 -0.471006
RightHandThumb1 -24.326973 -0.000000 -32.862282
LeftUpLeg -4.566528 -4.989265 3.841005
LeftLeg -3.596586 -0.000000 0.000000
LeftFoot -4.933458 6.482579 -19.792162
LeftToeBase -5.914388 -0.000000 0.000000
RightUpLeg -3.671180 1.821897 2.668363
RightLeg -4.853113 -0.000000 0.000000
RightFoot -4.027151 -12.291015 8.358485
RightToeBase -2.296166 -0.000000 0.000000
7
root -0.929753 32.928977 0.068995 9.637584 1.748216 -2.215655
Spine -12.683422 -6.414459 1.791729
Head 13.511189 -4.127604 -0.684223
LeftShoulder -19.999549 40.136866 21.564220
LeftArm 56.939285 -57.907632 -61.139185
LeftForeArm 4.903684 -0.000000 -4.169934
LeftHand 4.607408 -0.000000 5.585505
LeftHandThumb1 -26.253704 0.000000 33.147579
RightShoulder -7.986516 2.799554 -31.716153
RightArm 12.666552 14.535385 39.900091
RightForeArm -10.972120 -0.000000 0.105692
RightHand 2.488002 -0.000000 -0.435057
RightHandThumb1 -24.326973 -0.000000 -32.862282
LeftUpLeg -4.555452 -5.007385 3.823886
LeftLeg -3.584388 -0.000000 0.000000
LeftFoot -4.945632 6.514412 -19.771625
LeftToeBase -5.856063 -0.000000 0.000000
RightUpLeg -3.650263 1.813092 2.660557
RightLeg -4.864343 -0.000000 0.000000
RightFoot -4.080939 -12.313095 8.440186
RightToeBase -2.170916 -0.000000 0.000000
8
root -0.931594 32.929298 0.069401 9.621871 1.754998 -2.210461
Spine -12.672408 -6.430755 1.795054
Head 13.483852 -4.111259 -0.724364
LeftShoulder -20.003080 40.117090 21.558247
LeftArm 56.927268 -57.910010 -61.159816
LeftForeArm 4.972479 -0.000000 -4.189578
LeftHand 4.689157 0.000000 5.429282
LeftHandThumb1 -26.253704 0.000000 33.147579
RightShoulder -7.966553 2.817572 -31.726466
RightArm 12.677063 14.541362 39.914737
RightForeArm -10.895265 -0.000000 0.073648
RightHand 2.558171 -0.000000 -0.273598
RightHandThumb1 -24.326973 -0.000000 -32.862282
LeftUpLeg -4.551778 -5.002528 3.817882
LeftLeg -3.561623 -0.000000 0.000000
LeftFoot -4.957954 6.517679 -19.733901
LeftToeBase -5.863777 -0.000000 0.000000
RightUpLeg -3.628755 1.817869 2.657644
RightLeg -4.870952 -0.000000 0.000000
RightFoot -4.087634 -12.326238 8.474424
RightToeBase -2.160254 -0.000000 0.000000
9
root -0.933132 32.929503 0.070029 9.604741 1.758289 -2.202883
Spine -12.655601 -6.430996 1.785844
Head 13.435358 -4.122513 -0.740785
LeftShoulder -19.989696 40.121652 21.570409
LeftArm 57.108334 -57.996389 -61.467204
LeftForeArm 5.089908 0.000000 -4.081292
LeftHand 4.606840 0.000000 5.351051
LeftHandThumb1 -26.253704 0.000000 33.147579
RightShoulder -7.965896 2.830466 -31.724621
RightArm 12.695893 14.567623 39.923897
RightForeArm -10.765830 -0.000000 0.051592
RightHand 2.530747 -0.000000 -0.201381
RightHandThumb1 -24.326973 -0.000000 -32.862282
LeftUpLeg -4.541693 -5.021900 3.808449
LeftLeg -3.547352 -0.000000 0.000000
LeftFoot -4.964370 6.551456 -19.720290
LeftToeBase -5.887326 -0.000000 0.000000
RightUpLeg -3.614620 1.798000 2.652380
RightLeg -4.860632 -0.000000 0.000000
RightFoot -4.091372 -12.283504 8.491157
RightToeBase -2.176908 -0.000000 0.000000
10
root -0.935047 32.929760 0.070191 9.590986 1.762070 -2.195250
Spine -12.642557 -6.437168 1.776439
Head 13.393167 -4.118401 -0.755355
LeftShoulder -19.983406 40.093801 21.576314
LeftArm 57.090219 -57.976033 -61.474948
LeftForeArm 5.044361 -0.000000 -4.092701
LeftHand 4.602548 -0.000000 5.335108
LeftHandThumb1 -26.253704 0.000000 33.147579
RightShoulder -7.962235 2.878235 -31.728388
RightArm 12.697019 14.610202 39.942466
RightForeArm -10.743443 -0.000000 0.009498
RightHand 2.574890 -0.000000 -0.187818
RightHandThumb1 -24.326973 -0.000000 -32.862282
LeftUpLeg -4.539125 -5.016055 3.801181
LeftLeg -3.523619 -0.000000 0.000000
LeftFoot -4.962886 6.538009 -19.703338
LeftToeBase -5.901179 -0.000000 0.000000
RightUpLeg -3.598503 1.790863 2.648210
RightLeg -4.863633 -0.000000 0.000000
RightFoot -4.094287 -12.261390 8.527628
RightToeBase -2.202911 -0.000000 0.000000
11
root -0.936671 32.930166 0.069042 9.586840 1.768857 -2.189275
Spine -12.638093 -6.449720 1.774341
Head 13.343029 -4.125219 -0.783993
LeftShoulder -19.981920 40.097632 21.564327
LeftArm 57.132613 -57.978206 -61.539816
LeftForeArm 4.980387 -0.000000 -4.111289
LeftHand 4.591089 -0.000000 5.375112
LeftHandThumb1 -26.253704 0.000000 33.147579
RightShoulder -7.949680 2.915397 -31.723073
RightArm 12.696164 14.635252 39.941801
RightForeArm -10.739215 0.000000 -0.018783
RightHand 2.601699 -0.000000 -0.234047
RightHandThumb1 -24.326973 -0.000000 -32.862282
LeftUpLeg -4.547496 -5.025078 3.796329
LeftLeg -3.505330 -0.000000 0.000000
LeftFoot -4.969461 6.552865 -19.687710
LeftToeBase -5.888007 -0.000000 0.000000
RightUpLeg -3.601704 1.771598 2.646769
RightLeg -4.847695 -0.000000 0.000000
RightFoot -4.114367 -12.256765 8.507859
RightToeBase -2.170863 -0.000000 0.000000
12
root -0.937370 32.930378 0.067661 9.582841 1.766754 -2.180760
Spine -12.631398 -6.440056 1.765400
Head 13.294033 -4.125814 -0.800215
LeftShoulder -19.957926 40.066505 21.571293
LeftArm 57.148023 -57.990336 -61.587416
LeftForeArm 5.013314 -0.000000 -4.126274
LeftHand 4.528394 -0.000000 5.464285
LeftHandThumb1 -26.253704 0.000000 33.147579
RightShoulder -7.945313 2.969875 -31.734940
RightArm 12.664884 14.643515 39.953331
RightForeArm -10.717327 -0.000000 -0.025788
RightHand 2.615151 0.000000 -0.158368
RightHandThumb1 -24.326973 -0.000000 -32.862282
LeftUpLeg -4.556357 -5.036555 3.789175
LeftLeg -3.485990 -0.000000 0.000000
LeftFoot -4.971498 6.569175 -19.675228
LeftToeBase -5.965748 -0.000000 0.000000
RightUpLeg -3.601216 1.791312 2.634890
RightLeg -4.842403 -0.000000 0.000000
RightFoot -4.126109 -12.262936 8.523966
RightToeBase -2.174765 -0.000000 0.000000
13
root -0.938857 32.930177 0.067510 9.574366 1.767968 -2.175060
Spine -12.621495 -6.460179 1.767147
Head 13.232236 -4.098668 -0.826911
LeftShoulder -19.949312 40.009509 21.566984
LeftArm 57.029941 -57.952470 -61.478355
LeftForeArm 4.926493 0.000000 -4.192461
LeftHand 4.623053 -0.000000 5.499951
LeftHandThumb1 -26.253704 0.000000 33.147579
RightShoulder -7.921171 2.995565 -31.741628
RightArm 12.665880 14.656948 39.962727
RightForeArm -10.750030 -0.000000 -0.035942
RightHand 2.656256 -0.000000 -0.203141
RightHandThumb1 -24.326973 -0.000000 -32.862282
LeftUpLeg -4.551844 -5.043827 3.784983
LeftLeg -3.475969 -0.000000 0.000000
LeftFoot -4.985233 6.576612 -19.673884
LeftToeBase -5.919920 -0.000000 0.000000
RightUpLeg -3.588386 1.800278 2.629167
RightLeg -4.849966 -0.000000 0.000000
RightFoot -4.138040 -12.257317 8.556084
RightToeBase -2.156006 -0.000000 0.000000
